<mxfile host="app.diagrams.net" modified="2023-10-09T17:43:52.260Z" agent="Mozilla/5.0 (Windows NT 10.0; Win64; x64; rv:109.0) Gecko/20100101 Firefox/119.0" etag="jg4mbvoEjImB3mi3XilS" version="22.0.4" type="device">
  <diagram name="Page-1" id="10a91c8b-09ff-31b1-d368-03940ed4cc9e">
    <mxGraphModel dx="3014" dy="1861" grid="1" gridSize="10" guides="1" tooltips="1" connect="1" arrows="1" fold="1" page="1" pageScale="1" pageWidth="1100" pageHeight="850" background="none" math="0" shadow="0">
      <root>
        <mxCell id="0" />
        <mxCell id="1" parent="0" />
        <mxCell id="Ms32XR50p7yfsGB4Lvfj-58" style="edgeStyle=orthogonalEdgeStyle;rounded=0;orthogonalLoop=1;jettySize=auto;html=1;endArrow=none;endFill=0;" edge="1" parent="1">
          <mxGeometry relative="1" as="geometry">
            <mxPoint x="20" y="500" as="targetPoint" />
            <mxPoint x="385" y="470" as="sourcePoint" />
            <Array as="points">
              <mxPoint x="385" y="500" />
            </Array>
          </mxGeometry>
        </mxCell>
        <mxCell id="Ms32XR50p7yfsGB4Lvfj-2" value="" style="rounded=1;whiteSpace=wrap;html=1;fillColor=#dae8fc;strokeColor=#6c8ebf;" vertex="1" parent="1">
          <mxGeometry x="390" y="210" width="150" height="90" as="geometry" />
        </mxCell>
        <mxCell id="Ms32XR50p7yfsGB4Lvfj-3" value="Routes" style="text;html=1;strokeColor=none;fillColor=none;align=center;verticalAlign=middle;whiteSpace=wrap;rounded=0;fontSize=22;" vertex="1" parent="1">
          <mxGeometry x="400" y="240" width="130" height="30" as="geometry" />
        </mxCell>
        <mxCell id="Ms32XR50p7yfsGB4Lvfj-67" style="edgeStyle=orthogonalEdgeStyle;rounded=0;orthogonalLoop=1;jettySize=auto;html=1;endArrow=none;endFill=0;" edge="1" parent="1" source="Ms32XR50p7yfsGB4Lvfj-4" target="Ms32XR50p7yfsGB4Lvfj-65">
          <mxGeometry relative="1" as="geometry" />
        </mxCell>
        <mxCell id="Ms32XR50p7yfsGB4Lvfj-4" value="" style="rounded=1;whiteSpace=wrap;html=1;fillColor=#e1d5e7;strokeColor=#9673a6;" vertex="1" parent="1">
          <mxGeometry x="310" y="380" width="150" height="90" as="geometry" />
        </mxCell>
        <mxCell id="Ms32XR50p7yfsGB4Lvfj-5" value="&lt;font style=&quot;font-size: 22px;&quot;&gt;Adventure&lt;br style=&quot;font-size: 22px;&quot;&gt;&lt;/font&gt;" style="text;html=1;strokeColor=none;fillColor=none;align=center;verticalAlign=middle;whiteSpace=wrap;rounded=0;fontSize=22;" vertex="1" parent="1">
          <mxGeometry x="320" y="410" width="130" height="30" as="geometry" />
        </mxCell>
        <mxCell id="Ms32XR50p7yfsGB4Lvfj-74" style="edgeStyle=orthogonalEdgeStyle;rounded=0;orthogonalLoop=1;jettySize=auto;html=1;entryX=0.5;entryY=0;entryDx=0;entryDy=0;endArrow=none;endFill=0;" edge="1" parent="1" source="Ms32XR50p7yfsGB4Lvfj-10" target="Ms32XR50p7yfsGB4Lvfj-71">
          <mxGeometry relative="1" as="geometry" />
        </mxCell>
        <mxCell id="Ms32XR50p7yfsGB4Lvfj-99" style="edgeStyle=orthogonalEdgeStyle;rounded=0;orthogonalLoop=1;jettySize=auto;html=1;entryX=0.5;entryY=0;entryDx=0;entryDy=0;endArrow=none;endFill=0;" edge="1" parent="1" source="Ms32XR50p7yfsGB4Lvfj-6" target="Ms32XR50p7yfsGB4Lvfj-71">
          <mxGeometry relative="1" as="geometry">
            <Array as="points">
              <mxPoint x="555" y="500" />
              <mxPoint x="725" y="500" />
            </Array>
          </mxGeometry>
        </mxCell>
        <mxCell id="Ms32XR50p7yfsGB4Lvfj-6" value="" style="rounded=1;whiteSpace=wrap;html=1;fillColor=#e1d5e7;strokeColor=#9673a6;" vertex="1" parent="1">
          <mxGeometry x="480" y="380" width="150" height="90" as="geometry" />
        </mxCell>
        <mxCell id="Ms32XR50p7yfsGB4Lvfj-7" value="&lt;font style=&quot;font-size: 22px;&quot;&gt;Login&lt;/font&gt;" style="text;html=1;strokeColor=none;fillColor=none;align=center;verticalAlign=middle;whiteSpace=wrap;rounded=0;fontSize=22;" vertex="1" parent="1">
          <mxGeometry x="490" y="410" width="130" height="30" as="geometry" />
        </mxCell>
        <mxCell id="Ms32XR50p7yfsGB4Lvfj-9" value="" style="rounded=1;whiteSpace=wrap;html=1;fillColor=#e1d5e7;strokeColor=#9673a6;" vertex="1" parent="1">
          <mxGeometry x="650" y="380" width="150" height="90" as="geometry" />
        </mxCell>
        <mxCell id="Ms32XR50p7yfsGB4Lvfj-10" value="&lt;font style=&quot;font-size: 22px;&quot;&gt;Signup&lt;/font&gt;" style="text;html=1;strokeColor=none;fillColor=none;align=center;verticalAlign=middle;whiteSpace=wrap;rounded=0;fontSize=22;" vertex="1" parent="1">
          <mxGeometry x="660" y="410" width="130" height="30" as="geometry" />
        </mxCell>
        <mxCell id="Ms32XR50p7yfsGB4Lvfj-16" value="" style="rounded=1;whiteSpace=wrap;html=1;fillColor=#e1d5e7;strokeColor=#9673a6;" vertex="1" parent="1">
          <mxGeometry x="140" y="380" width="150" height="90" as="geometry" />
        </mxCell>
        <mxCell id="Ms32XR50p7yfsGB4Lvfj-17" value="&lt;font style=&quot;font-size: 22px;&quot;&gt;Custom&lt;br style=&quot;font-size: 22px;&quot;&gt;&lt;/font&gt;" style="text;html=1;strokeColor=none;fillColor=none;align=center;verticalAlign=middle;whiteSpace=wrap;rounded=0;fontSize=22;" vertex="1" parent="1">
          <mxGeometry x="150" y="410" width="130" height="30" as="geometry" />
        </mxCell>
        <mxCell id="Ms32XR50p7yfsGB4Lvfj-83" style="edgeStyle=orthogonalEdgeStyle;rounded=0;orthogonalLoop=1;jettySize=auto;html=1;entryX=0.5;entryY=0;entryDx=0;entryDy=0;endArrow=none;endFill=0;" edge="1" parent="1" target="Ms32XR50p7yfsGB4Lvfj-81">
          <mxGeometry relative="1" as="geometry">
            <mxPoint x="1020" y="425" as="sourcePoint" />
            <Array as="points">
              <mxPoint x="1065" y="425" />
            </Array>
          </mxGeometry>
        </mxCell>
        <mxCell id="Ms32XR50p7yfsGB4Lvfj-100" style="edgeStyle=orthogonalEdgeStyle;rounded=0;orthogonalLoop=1;jettySize=auto;html=1;endArrow=none;endFill=0;" edge="1" parent="1" source="Ms32XR50p7yfsGB4Lvfj-18" target="Ms32XR50p7yfsGB4Lvfj-71">
          <mxGeometry relative="1" as="geometry">
            <Array as="points">
              <mxPoint x="895" y="500" />
              <mxPoint x="725" y="500" />
            </Array>
          </mxGeometry>
        </mxCell>
        <mxCell id="Ms32XR50p7yfsGB4Lvfj-18" value="" style="rounded=1;whiteSpace=wrap;html=1;fillColor=#e1d5e7;strokeColor=#9673a6;" vertex="1" parent="1">
          <mxGeometry x="820" y="380" width="150" height="90" as="geometry" />
        </mxCell>
        <mxCell id="Ms32XR50p7yfsGB4Lvfj-20" value="" style="rounded=1;whiteSpace=wrap;html=1;fillColor=#e1d5e7;strokeColor=#9673a6;" vertex="1" parent="1">
          <mxGeometry x="-30" y="380" width="150" height="90" as="geometry" />
        </mxCell>
        <mxCell id="Ms32XR50p7yfsGB4Lvfj-21" value="&lt;font style=&quot;font-size: 22px;&quot;&gt;Home&lt;br style=&quot;font-size: 22px;&quot;&gt;&lt;/font&gt;" style="text;html=1;strokeColor=none;fillColor=none;align=center;verticalAlign=middle;whiteSpace=wrap;rounded=0;fontSize=22;" vertex="1" parent="1">
          <mxGeometry x="-20" y="410" width="130" height="30" as="geometry" />
        </mxCell>
        <mxCell id="Ms32XR50p7yfsGB4Lvfj-59" style="edgeStyle=orthogonalEdgeStyle;rounded=0;orthogonalLoop=1;jettySize=auto;html=1;endArrow=none;endFill=0;" edge="1" parent="1" target="Ms32XR50p7yfsGB4Lvfj-50">
          <mxGeometry relative="1" as="geometry">
            <mxPoint x="-140" y="460" as="sourcePoint" />
            <mxPoint x="45" y="530" as="targetPoint" />
            <Array as="points">
              <mxPoint x="-130" y="460" />
              <mxPoint x="-130" y="500" />
              <mxPoint x="25" y="500" />
            </Array>
          </mxGeometry>
        </mxCell>
        <mxCell id="Ms32XR50p7yfsGB4Lvfj-22" value="" style="rounded=1;whiteSpace=wrap;html=1;fillColor=#e1d5e7;strokeColor=#9673a6;" vertex="1" parent="1">
          <mxGeometry x="-200" y="380" width="150" height="90" as="geometry" />
        </mxCell>
        <mxCell id="Ms32XR50p7yfsGB4Lvfj-23" value="&lt;font style=&quot;font-size: 22px;&quot;&gt;Review&lt;/font&gt;" style="text;html=1;strokeColor=none;fillColor=none;align=center;verticalAlign=middle;whiteSpace=wrap;rounded=0;fontSize=22;" vertex="1" parent="1">
          <mxGeometry x="-190" y="410" width="130" height="30" as="geometry" />
        </mxCell>
        <mxCell id="Ms32XR50p7yfsGB4Lvfj-25" value="" style="rounded=1;whiteSpace=wrap;html=1;fillColor=#e1d5e7;strokeColor=#9673a6;" vertex="1" parent="1">
          <mxGeometry x="990" y="380" width="150" height="90" as="geometry" />
        </mxCell>
        <mxCell id="Ms32XR50p7yfsGB4Lvfj-26" value="&lt;font style=&quot;font-size: 22px;&quot;&gt;Settings&lt;/font&gt;" style="text;html=1;strokeColor=none;fillColor=none;align=center;verticalAlign=middle;whiteSpace=wrap;rounded=0;fontSize=22;" vertex="1" parent="1">
          <mxGeometry x="830" y="410" width="130" height="30" as="geometry" />
        </mxCell>
        <mxCell id="Ms32XR50p7yfsGB4Lvfj-29" value="" style="endArrow=none;html=1;rounded=0;exitX=0.5;exitY=1;exitDx=0;exitDy=0;" edge="1" parent="1" source="Ms32XR50p7yfsGB4Lvfj-2">
          <mxGeometry width="50" height="50" relative="1" as="geometry">
            <mxPoint x="740" y="510" as="sourcePoint" />
            <mxPoint x="465" y="340" as="targetPoint" />
          </mxGeometry>
        </mxCell>
        <mxCell id="Ms32XR50p7yfsGB4Lvfj-30" value="" style="endArrow=none;html=1;rounded=0;" edge="1" parent="1">
          <mxGeometry width="50" height="50" relative="1" as="geometry">
            <mxPoint x="-126" y="340" as="sourcePoint" />
            <mxPoint x="1066" y="340" as="targetPoint" />
          </mxGeometry>
        </mxCell>
        <mxCell id="Ms32XR50p7yfsGB4Lvfj-31" value="" style="endArrow=none;html=1;rounded=0;entryX=0.5;entryY=0;entryDx=0;entryDy=0;" edge="1" parent="1" target="Ms32XR50p7yfsGB4Lvfj-22">
          <mxGeometry width="50" height="50" relative="1" as="geometry">
            <mxPoint x="-125" y="340" as="sourcePoint" />
            <mxPoint x="570" y="460" as="targetPoint" />
          </mxGeometry>
        </mxCell>
        <mxCell id="Ms32XR50p7yfsGB4Lvfj-33" value="" style="endArrow=none;html=1;rounded=0;entryX=0.5;entryY=0;entryDx=0;entryDy=0;" edge="1" parent="1">
          <mxGeometry width="50" height="50" relative="1" as="geometry">
            <mxPoint x="44.5" y="340" as="sourcePoint" />
            <mxPoint x="44.5" y="380" as="targetPoint" />
          </mxGeometry>
        </mxCell>
        <mxCell id="Ms32XR50p7yfsGB4Lvfj-36" value="" style="endArrow=none;html=1;rounded=0;entryX=0.5;entryY=0;entryDx=0;entryDy=0;" edge="1" parent="1">
          <mxGeometry width="50" height="50" relative="1" as="geometry">
            <mxPoint x="214.5" y="340" as="sourcePoint" />
            <mxPoint x="214.5" y="380" as="targetPoint" />
          </mxGeometry>
        </mxCell>
        <mxCell id="Ms32XR50p7yfsGB4Lvfj-41" value="" style="endArrow=none;html=1;rounded=0;entryX=0.5;entryY=0;entryDx=0;entryDy=0;" edge="1" parent="1">
          <mxGeometry width="50" height="50" relative="1" as="geometry">
            <mxPoint x="1064.5" y="340" as="sourcePoint" />
            <mxPoint x="1064.5" y="380" as="targetPoint" />
          </mxGeometry>
        </mxCell>
        <mxCell id="Ms32XR50p7yfsGB4Lvfj-42" value="" style="endArrow=none;html=1;rounded=0;entryX=0.5;entryY=0;entryDx=0;entryDy=0;" edge="1" parent="1">
          <mxGeometry width="50" height="50" relative="1" as="geometry">
            <mxPoint x="894.5" y="340" as="sourcePoint" />
            <mxPoint x="894.5" y="380" as="targetPoint" />
          </mxGeometry>
        </mxCell>
        <mxCell id="Ms32XR50p7yfsGB4Lvfj-43" value="" style="endArrow=none;html=1;rounded=0;entryX=0.5;entryY=0;entryDx=0;entryDy=0;" edge="1" parent="1">
          <mxGeometry width="50" height="50" relative="1" as="geometry">
            <mxPoint x="724.5" y="340" as="sourcePoint" />
            <mxPoint x="724.5" y="380" as="targetPoint" />
          </mxGeometry>
        </mxCell>
        <mxCell id="Ms32XR50p7yfsGB4Lvfj-44" value="" style="endArrow=none;html=1;rounded=0;entryX=0.5;entryY=0;entryDx=0;entryDy=0;" edge="1" parent="1">
          <mxGeometry width="50" height="50" relative="1" as="geometry">
            <mxPoint x="554.5" y="340" as="sourcePoint" />
            <mxPoint x="554.5" y="380" as="targetPoint" />
          </mxGeometry>
        </mxCell>
        <mxCell id="Ms32XR50p7yfsGB4Lvfj-45" value="" style="endArrow=none;html=1;rounded=0;entryX=0.5;entryY=0;entryDx=0;entryDy=0;" edge="1" parent="1">
          <mxGeometry width="50" height="50" relative="1" as="geometry">
            <mxPoint x="384.5" y="340" as="sourcePoint" />
            <mxPoint x="384.5" y="380" as="targetPoint" />
          </mxGeometry>
        </mxCell>
        <mxCell id="Ms32XR50p7yfsGB4Lvfj-86" style="edgeStyle=orthogonalEdgeStyle;rounded=0;orthogonalLoop=1;jettySize=auto;html=1;entryX=0.5;entryY=0;entryDx=0;entryDy=0;endArrow=none;endFill=0;" edge="1" parent="1" source="Ms32XR50p7yfsGB4Lvfj-50" target="Ms32XR50p7yfsGB4Lvfj-84">
          <mxGeometry relative="1" as="geometry" />
        </mxCell>
        <mxCell id="Ms32XR50p7yfsGB4Lvfj-50" value="" style="rounded=1;whiteSpace=wrap;html=1;fillColor=#ffe6cc;strokeColor=#d79b00;" vertex="1" parent="1">
          <mxGeometry x="-50" y="530" width="150" height="90" as="geometry" />
        </mxCell>
        <mxCell id="Ms32XR50p7yfsGB4Lvfj-51" value="BoardElement" style="text;html=1;strokeColor=none;fillColor=none;align=center;verticalAlign=middle;whiteSpace=wrap;rounded=0;fontSize=21;" vertex="1" parent="1">
          <mxGeometry x="-40" y="560" width="130" height="30" as="geometry" />
        </mxCell>
        <mxCell id="Ms32XR50p7yfsGB4Lvfj-62" value="" style="endArrow=none;html=1;rounded=0;exitX=0.5;exitY=1;exitDx=0;exitDy=0;" edge="1" parent="1" source="Ms32XR50p7yfsGB4Lvfj-16">
          <mxGeometry width="50" height="50" relative="1" as="geometry">
            <mxPoint x="500" y="390" as="sourcePoint" />
            <mxPoint x="215" y="500" as="targetPoint" />
          </mxGeometry>
        </mxCell>
        <mxCell id="Ms32XR50p7yfsGB4Lvfj-65" value="" style="rounded=1;whiteSpace=wrap;html=1;fillColor=#d5e8d4;strokeColor=#82b366;" vertex="1" parent="1">
          <mxGeometry x="310" y="530" width="150" height="90" as="geometry" />
        </mxCell>
        <mxCell id="Ms32XR50p7yfsGB4Lvfj-66" value="AdventureResults" style="text;html=1;strokeColor=none;fillColor=none;align=center;verticalAlign=middle;whiteSpace=wrap;rounded=0;fontSize=16;" vertex="1" parent="1">
          <mxGeometry x="320" y="560" width="130" height="30" as="geometry" />
        </mxCell>
        <mxCell id="Ms32XR50p7yfsGB4Lvfj-71" value="" style="rounded=1;whiteSpace=wrap;html=1;fillColor=#f8cecc;strokeColor=#b85450;" vertex="1" parent="1">
          <mxGeometry x="650" y="530" width="150" height="90" as="geometry" />
        </mxCell>
        <mxCell id="Ms32XR50p7yfsGB4Lvfj-72" value="TextInput" style="text;html=1;strokeColor=none;fillColor=none;align=center;verticalAlign=middle;whiteSpace=wrap;rounded=0;fontSize=22;" vertex="1" parent="1">
          <mxGeometry x="660" y="560" width="130" height="30" as="geometry" />
        </mxCell>
        <mxCell id="Ms32XR50p7yfsGB4Lvfj-80" style="edgeStyle=orthogonalEdgeStyle;rounded=0;orthogonalLoop=1;jettySize=auto;html=1;endArrow=none;endFill=0;" edge="1" parent="1" source="Ms32XR50p7yfsGB4Lvfj-76" target="Ms32XR50p7yfsGB4Lvfj-16">
          <mxGeometry relative="1" as="geometry" />
        </mxCell>
        <mxCell id="Ms32XR50p7yfsGB4Lvfj-76" value="" style="rounded=1;whiteSpace=wrap;html=1;fillColor=#fff2cc;strokeColor=#d6b656;" vertex="1" parent="1">
          <mxGeometry x="130" y="530" width="150" height="90" as="geometry" />
        </mxCell>
        <mxCell id="Ms32XR50p7yfsGB4Lvfj-77" value="&lt;font style=&quot;font-size: 16px;&quot;&gt;CustomisationSlider&lt;/font&gt;" style="text;html=1;strokeColor=none;fillColor=none;align=center;verticalAlign=middle;whiteSpace=wrap;rounded=0;fontSize=16;" vertex="1" parent="1">
          <mxGeometry x="140" y="560" width="130" height="30" as="geometry" />
        </mxCell>
        <mxCell id="Ms32XR50p7yfsGB4Lvfj-81" value="" style="rounded=1;whiteSpace=wrap;html=1;fillColor=#b0e3e6;strokeColor=#0e8088;" vertex="1" parent="1">
          <mxGeometry x="990" y="540" width="150" height="90" as="geometry" />
        </mxCell>
        <mxCell id="Ms32XR50p7yfsGB4Lvfj-82" value="Game" style="text;html=1;strokeColor=none;fillColor=none;align=center;verticalAlign=middle;whiteSpace=wrap;rounded=0;fontSize=22;" vertex="1" parent="1">
          <mxGeometry x="1000" y="570" width="130" height="30" as="geometry" />
        </mxCell>
        <mxCell id="Ms32XR50p7yfsGB4Lvfj-84" value="" style="rounded=1;whiteSpace=wrap;html=1;fillColor=#d0cee2;strokeColor=#56517e;" vertex="1" parent="1">
          <mxGeometry x="-50" y="660" width="150" height="90" as="geometry" />
        </mxCell>
        <mxCell id="Ms32XR50p7yfsGB4Lvfj-85" value="Piece" style="text;html=1;strokeColor=none;fillColor=none;align=center;verticalAlign=middle;whiteSpace=wrap;rounded=0;fontSize=21;" vertex="1" parent="1">
          <mxGeometry x="-40" y="690" width="130" height="30" as="geometry" />
        </mxCell>
        <mxCell id="Ms32XR50p7yfsGB4Lvfj-95" style="edgeStyle=orthogonalEdgeStyle;rounded=0;orthogonalLoop=1;jettySize=auto;html=1;entryX=0.5;entryY=0;entryDx=0;entryDy=0;endArrow=none;endFill=0;" edge="1" parent="1" source="Ms32XR50p7yfsGB4Lvfj-87" target="Ms32XR50p7yfsGB4Lvfj-2">
          <mxGeometry relative="1" as="geometry" />
        </mxCell>
        <mxCell id="Ms32XR50p7yfsGB4Lvfj-87" value="" style="rounded=1;whiteSpace=wrap;html=1;fillColor=#fad7ac;strokeColor=#b46504;" vertex="1" parent="1">
          <mxGeometry x="390" y="80" width="150" height="90" as="geometry" />
        </mxCell>
        <mxCell id="Ms32XR50p7yfsGB4Lvfj-88" value="App" style="text;html=1;strokeColor=none;fillColor=none;align=center;verticalAlign=middle;whiteSpace=wrap;rounded=0;fontSize=22;" vertex="1" parent="1">
          <mxGeometry x="400" y="110" width="130" height="30" as="geometry" />
        </mxCell>
        <mxCell id="Ms32XR50p7yfsGB4Lvfj-96" style="edgeStyle=orthogonalEdgeStyle;rounded=0;orthogonalLoop=1;jettySize=auto;html=1;entryX=0.5;entryY=0;entryDx=0;entryDy=0;endArrow=none;endFill=0;" edge="1" parent="1" source="Ms32XR50p7yfsGB4Lvfj-89" target="Ms32XR50p7yfsGB4Lvfj-87">
          <mxGeometry relative="1" as="geometry" />
        </mxCell>
        <mxCell id="Ms32XR50p7yfsGB4Lvfj-89" value="" style="rounded=1;whiteSpace=wrap;html=1;fillColor=#fad9d5;strokeColor=#ae4132;" vertex="1" parent="1">
          <mxGeometry x="390" y="-50" width="150" height="90" as="geometry" />
        </mxCell>
        <mxCell id="Ms32XR50p7yfsGB4Lvfj-90" value="BrowserRouter" style="text;html=1;strokeColor=none;fillColor=none;align=center;verticalAlign=middle;whiteSpace=wrap;rounded=0;fontSize=20;" vertex="1" parent="1">
          <mxGeometry x="400" y="-20" width="130" height="30" as="geometry" />
        </mxCell>
        <mxCell id="Ms32XR50p7yfsGB4Lvfj-97" style="edgeStyle=orthogonalEdgeStyle;rounded=0;orthogonalLoop=1;jettySize=auto;html=1;endArrow=none;endFill=0;" edge="1" parent="1" source="Ms32XR50p7yfsGB4Lvfj-93" target="Ms32XR50p7yfsGB4Lvfj-89">
          <mxGeometry relative="1" as="geometry" />
        </mxCell>
        <mxCell id="Ms32XR50p7yfsGB4Lvfj-93" value="" style="rounded=1;whiteSpace=wrap;html=1;fillColor=#bac8d3;strokeColor=#23445d;" vertex="1" parent="1">
          <mxGeometry x="390" y="-170" width="150" height="90" as="geometry" />
        </mxCell>
        <mxCell id="Ms32XR50p7yfsGB4Lvfj-94" value="Root" style="text;html=1;strokeColor=none;fillColor=none;align=center;verticalAlign=middle;whiteSpace=wrap;rounded=0;fontSize=20;" vertex="1" parent="1">
          <mxGeometry x="400" y="-140" width="130" height="30" as="geometry" />
        </mxCell>
        <mxCell id="Ms32XR50p7yfsGB4Lvfj-98" value="&lt;font style=&quot;font-size: 22px;&quot;&gt;History&lt;/font&gt;" style="text;html=1;strokeColor=none;fillColor=none;align=center;verticalAlign=middle;whiteSpace=wrap;rounded=0;fontSize=22;" vertex="1" parent="1">
          <mxGeometry x="1000" y="410" width="130" height="30" as="geometry" />
        </mxCell>
      </root>
    </mxGraphModel>
  </diagram>
</mxfile>
